<svg xmlns="http://www.w3.org/2000/svg" xmlns:xlink="http://www.w3.org/1999/xlink" width="1200" height="1200" viewBox="0 0 1200 1200"><g><g transform="translate(600 600) scale(0.69 0.69) rotate(0) translate(-600 -600)" style="fill:#761102"><svg fill="#761102" xmlns:x="http://ns.adobe.com/Extensibility/1.0/" xmlns:i="http://ns.adobe.com/AdobeIllustrator/10.0/" xmlns:graph="http://ns.adobe.com/Graphs/1.0/" xmlns="http://www.w3.org/2000/svg" xmlns:xlink="http://www.w3.org/1999/xlink" version="1.1" x="0px" y="0px" viewBox="0 0 100 100" enable-background="new 0 0 100 100" xml:space="preserve"><g><g i:extraneous="self"><path d="M61.812,24.771c-10.312,0-19.213,6.063-23.411,14.804c-2.784,2.921-4.506,6.873-4.506,11.227    c0,2.854,0.741,5.535,2.03,7.868c-1.392-1.138-2.634-2.448-3.723-3.883c-0.609-1.835-0.949-3.79-0.949-5.826    c0-4.119,1.318-8.021,3.815-11.287c0.227-0.296,0.171-0.72-0.126-0.946c-0.295-0.228-0.72-0.17-0.944,0.126    c-2.679,3.503-4.095,7.688-4.095,12.106c0,0.829,0.066,1.642,0.166,2.444c-1.58-3.084-2.486-6.565-2.486-10.262    c0-12.464,10.127-22.604,22.575-22.604c0.372,0,0.675-0.302,0.675-0.675s-0.303-0.675-0.675-0.675    c-13.191,0-23.925,10.746-23.925,23.955c0,3.193,0.638,6.236,1.777,9.023c-1.666-3.301-2.626-7.011-2.626-10.948    c0-13.526,11.072-24.531,24.68-24.531c0.372,0,0.675-0.302,0.675-0.675s-0.303-0.675-0.675-0.675    c-14.352,0-26.03,11.61-26.03,25.881c0,7.301,3.069,13.894,7.976,18.604c3.299,6.609,10.141,11.175,18.054,11.175    c0.021,0,0.032-0.02,0.05-0.021c0.78-0.002,1.542-0.076,2.291-0.187c-4.087,4.084-9.727,6.613-15.947,6.613    c-12.448,0-22.576-10.127-22.576-22.576c0-0.373-0.303-0.675-0.675-0.675s-0.675,0.302-0.675,0.675    c0,13.193,10.734,23.926,23.926,23.926c2.842,0,5.558-0.523,8.089-1.437c-3.08,1.397-6.481,2.194-10.072,2.194    c-13.542,0-24.558-11.073-24.558-24.683c0-0.373-0.303-0.675-0.675-0.675c-0.372,0-0.675,0.302-0.675,0.675    c0,14.354,11.623,26.033,25.908,26.033c8.635,0,16.279-4.282,20.991-10.828c6.262-2.229,10.766-8.199,10.766-15.215    c0-8.912-7.253-16.163-16.168-16.163c-0.023,0-0.037,0.022-0.058,0.023c-4.562,0.02-8.58,2.218-11.174,5.57    c0.322-0.778,0.678-1.536,1.079-2.268c2.628-2.495,6.151-4.041,10.035-4.071c0.045,0.008,0.071,0.049,0.119,0.049    c2.42,0,4.754,0.364,6.966,1.015c9.046,2.932,15.609,11.4,15.609,21.376c0,12.396-10.127,22.48-22.576,22.48    c-0.372,0-0.675,0.302-0.675,0.675s0.303,0.675,0.675,0.675c13.191,0,23.926-10.69,23.926-23.831c0-2.423-0.369-4.762-1.05-6.966    c1.158,2.849,1.809,5.954,1.809,9.213c0,13.583-11.074,24.635-24.685,24.635c-0.372,0-0.675,0.302-0.675,0.675    c0,0.374,0.303,0.675,0.675,0.675c14.357,0,26.035-11.657,26.035-25.985c0-11.776-7.892-21.732-18.671-24.912    c-2.323-0.751-4.793-1.168-7.364-1.168c-0.04,0-0.063,0.036-0.1,0.042c-2.834,0.017-5.495,0.775-7.807,2.085    c4.142-5.125,10.47-8.417,17.558-8.417c12.445,0,22.57,10.128,22.57,22.576c0,0.373,0.303,0.675,0.675,0.675    c0.372,0,0.675-0.302,0.675-0.675c0-13.193-10.731-23.925-23.92-23.925c-2.705,0-5.297,0.472-7.723,1.304    c3.011-1.317,6.331-2.06,9.821-2.06c13.584,0,24.638,11.072,24.638,24.681c0,0.373,0.303,0.675,0.675,0.675    c0.372,0,0.675-0.302,0.675-0.675C87.799,36.449,76.143,24.771,61.812,24.771z M35.244,50.802c0-2.206,0.49-4.294,1.35-6.178    c-0.098,0.397-0.201,0.791-0.28,1.196c-0.343,1.608-0.532,3.273-0.532,4.982c0,0.043,0.04,0.071,0.047,0.112    c0.013,4.436,2.115,8.352,5.329,10.949c-0.68-0.298-1.342-0.627-1.985-0.989C36.742,58.219,35.244,54.688,35.244,50.802z     M53.931,67.1c-1.237,0.334-2.529,0.53-3.868,0.53c-0.016,0-0.023,0.016-0.04,0.016c-5.961-0.012-11.269-2.8-14.71-7.122    c1.158,0.793,2.389,1.48,3.67,2.083c2.895,2.749,6.79,4.448,11.08,4.448c1.582,0,3.077-0.319,4.498-0.798    C54.35,66.54,54.152,66.83,53.931,67.1z M55.9,64.242c-1.762,0.904-3.726,1.463-5.838,1.463c-2.196,0-4.277-0.496-6.151-1.362    c1.975,0.479,4.029,0.761,6.151,0.761c0.008,0,0.013-0.009,0.021-0.009c0.026,0,0.05,0.004,0.074,0.004    c0.05,0,0.084-0.043,0.132-0.054c2.276-0.043,4.385-0.718,6.196-1.844C56.301,63.555,56.104,63.899,55.9,64.242z M50.062,38.022    c0.016,0,0.024-0.016,0.04-0.016c8.153,0.021,14.779,6.655,14.779,14.811c0,5.748-3.298,10.729-8.095,13.184    c0.2-0.343,0.409-0.68,0.593-1.034c4.129-2.496,6.921-6.985,6.921-12.15c0-7.822-6.347-14.183-14.162-14.225    c-0.029-0.004-0.047-0.032-0.077-0.032c-6.755,0-12.25,5.516-12.25,12.295c0,6.78,5.495,12.298,12.25,12.298    c0.013,0,0.021-0.013,0.034-0.015c3.246-0.01,6.112-1.554,8-3.914c-0.145,0.485-0.316,0.958-0.49,1.429    c-1.962,1.888-4.614,3.063-7.544,3.063c-0.005,0-0.005,0.004-0.011,0.004c-7.101-0.005-12.877-5.768-12.877-12.85    C37.174,43.786,42.957,38.022,50.062,38.022z M50.062,45.716c3.916,0,7.104,3.185,7.104,7.101c0,3.917-3.188,7.103-7.104,7.103    c-0.011,0-0.016,0.011-0.026,0.011c-4.933-0.015-8.944-4.049-8.944-9.007c0-4.965,4.019-9.006,8.959-9.011    c0.005,0,0.005,0.004,0.011,0.004c6.009,0,10.9,4.89,10.9,10.9c0,1.596-0.364,3.102-0.983,4.469    c0.25-1.452,0.408-2.936,0.408-4.459c0-0.001,0-0.001,0-0.001c0-0.004,0-0.007,0-0.009c0-5.69-4.632-10.32-10.325-10.32    c-4.662,0-8.453,3.783-8.453,8.432c0,4.65,3.792,8.433,8.453,8.433c0.372,0,0.675-0.302,0.675-0.675s-0.303-0.675-0.675-0.675    c-3.916,0-7.104-3.177-7.104-7.083c0-3.905,3.188-7.082,7.104-7.082c4.949,0,8.976,4.022,8.976,8.969    c0,0.004-0.005,0.007-0.005,0.012c0,0.028-0.005,0.056-0.005,0.083c-0.05,4.906-4.047,8.882-8.965,8.882    c-0.008,0-0.013,0.008-0.021,0.008c-5.999-0.011-10.879-4.915-10.879-10.945c0-6.02,4.868-10.915,10.855-10.939    c0.016,0,0.026,0.018,0.045,0.018c7.106,0,12.888,5.78,12.888,12.883c0,3.852-1.735,7.276-4.421,9.64    c0.174-0.441,0.337-0.889,0.49-1.342c2.025-2.186,3.293-5.088,3.293-8.298c0-6.75-5.487-12.24-12.234-12.249    c-0.005,0-0.01-0.006-0.016-0.006c-5.69,0-10.32,4.648-10.32,10.362c0,5.712,4.63,10.359,10.32,10.359    c0.016,0,0.026-0.016,0.042-0.017c4.641-0.024,8.411-3.802,8.411-8.449c0-4.659-3.792-8.451-8.453-8.451    c-0.372,0-0.675,0.302-0.675,0.675S49.691,45.716,50.062,45.716z"/></g></g></svg></g></g></svg>