<svg xmlns="http://www.w3.org/2000/svg" xmlns:xlink="http://www.w3.org/1999/xlink" width="1200" height="1200" viewBox="0 0 1200 1200"><g><g transform="translate(600 600) scale(0.69 0.69) rotate(0) translate(-600 -600)" style="fill:#98a006"><svg fill="#98a006" xmlns:x="http://ns.adobe.com/Extensibility/1.0/" xmlns:i="http://ns.adobe.com/AdobeIllustrator/10.0/" xmlns:graph="http://ns.adobe.com/Graphs/1.0/" xmlns="http://www.w3.org/2000/svg" xmlns:xlink="http://www.w3.org/1999/xlink" version="1.1" x="0px" y="0px" viewBox="0 0 100 100" enable-background="new 0 0 100 100" xml:space="preserve"><g><g i:extraneous="self"><path d="M55.503,43.692c0.083-0.172,0.165-0.342,0.248-0.52c0.202-0.445,0.402-0.898,0.596-1.369    c0.217-0.523,0.414-1.033,0.597-1.531c0.012-0.031-0.011-0.062-0.005-0.096c0.226-0.211,0.444-0.4,0.676-0.629    c3.701-3.703,4.462-6.607,4.494-6.732c0.058-0.232-0.011-0.477-0.182-0.643c-0.171-0.168-0.414-0.234-0.647-0.172    c-0.07,0.02-1.068,0.311-2.576,1.219c0.422-3.314,0.049-5.258,0.031-5.348c-0.045-0.219-0.193-0.4-0.399-0.488    c-0.201-0.082-0.438-0.064-0.627,0.057c-0.112,0.07-1.808,1.189-3.898,3.92c-0.721-6.211-2.794-9.324-2.889-9.461    c-0.127-0.182-0.334-0.289-0.554-0.289h-0.006c-0.221,0.002-0.43,0.113-0.554,0.297c-0.095,0.141-2.158,3.328-2.87,9.564    c-2.123-2.803-3.863-3.959-3.979-4.031c-0.185-0.121-0.42-0.139-0.627-0.057c-0.205,0.088-0.354,0.27-0.399,0.488    c-0.024,0.125-0.54,2.885,0.391,7.463c-1.642-1.035-2.75-1.408-2.826-1.432c-0.245-0.08-0.508-0.012-0.684,0.168    c-0.178,0.182-0.239,0.445-0.16,0.686c0.043,0.135,1.117,3.309,4.796,6.986c0.479,0.48,0.971,0.932,1.466,1.355    c0.008,0.027-0.009,0.053,0.003,0.076c0.084,0.186,0.171,0.359,0.257,0.539c-4.084,1.508-6.357,5.303-7.394,12.516    c0,0.02-0.008,0.035-0.008,0.053c-0.483,3.398-0.7,7.545-0.7,12.574c0,4.27,1.008,7.359,3.119,9.406    c0.014,0.016,0.007,0.039,0.022,0.055c0.01,0.008,0.024,0.006,0.033,0.014c2.172,2.062,5.496,3.037,10.106,3.037    c1.549,0,2.902-0.152,4.168-0.375c0.022,0.004,0.039,0.027,0.062,0.027c0.066,0,0.119-0.055,0.182-0.076    c6.089-1.158,8.914-4.984,8.914-12.088C63.679,53.053,61.574,45.891,55.503,43.692z M55.841,45.336l-1.389,1.391l-2.393-2.395    C53.499,44.467,54.748,44.797,55.841,45.336z M47.208,55.879l3.146-3.146l3.145,3.146l-3.146,3.145L47.208,55.879z M53.498,64.079    l-3.146,3.146l-3.145-3.146l3.145-3.145L53.498,64.079z M47.208,47.682l3.145-3.146l3.146,3.146l-3.145,3.143L47.208,47.682z     M49.399,51.778l-3.146,3.146l-3.145-3.146l3.146-3.143L49.399,51.778z M49.397,59.979l-3.144,3.146l-3.146-3.146l3.146-3.146    L49.397,59.979z M45.299,64.079l-3.144,3.143l-3.146-3.145l3.145-3.143L45.299,64.079z M46.254,65.034l3.144,3.146l-3.143,3.143    l-3.146-3.146L46.254,65.034z M50.354,69.133l3.145,3.143l-3.143,3.145l-3.146-3.145L50.354,69.133z M51.307,68.18l3.146-3.146    l3.145,3.146l-3.145,3.143L51.307,68.18z M55.407,64.079l3.146-3.145l3.146,3.143l-3.146,3.145L55.407,64.079z M54.452,63.125    l-3.146-3.146l3.146-3.146l3.146,3.146L54.452,63.125z M51.309,51.778l3.144-3.143l3.146,3.143l-3.146,3.146L51.309,51.778z     M53.126,43.118c0.505-0.307,1.058-0.67,1.667-1.123c-0.09,0.205-0.179,0.416-0.268,0.613c-0.112,0.24-0.225,0.473-0.337,0.705    C53.848,43.235,53.49,43.172,53.126,43.118z M60.191,33.922c-0.575,1.113-1.639,2.777-3.532,4.67    c-1.937,1.938-3.7,3.104-4.898,3.76c0.663-1.201,1.824-2.963,3.719-4.859C57.382,35.59,59.068,34.508,60.191,33.922z     M57.531,29.301c0.055,1.027,0.042,2.711-0.338,4.908c-0.001,0.006,0.004,0.01,0.003,0.014c-0.817,0.607-1.718,1.361-2.671,2.316    c-1.287,1.285-2.24,2.502-2.956,3.557c-0.153-0.404-0.29-0.795-0.464-1.213c-0.015-0.035-0.029-0.061-0.044-0.094    c0.003-0.004,0.007-0.004,0.008-0.01C53.394,33.44,56.139,30.536,57.531,29.301z M48.132,32.969    c0.343-4.686,1.529-7.793,2.241-9.281c0.719,1.473,1.911,4.547,2.25,9.24c0.002,0.027,0.028,0.045,0.034,0.072    c-0.772,1.17-1.559,2.586-2.326,4.211c-0.746-1.582-1.508-2.959-2.262-4.111C48.084,33.053,48.128,33.022,48.132,32.969z     M43.137,29.301c1.444,1.277,4.345,4.361,6.722,10.098c0.303,0.73,0.572,1.439,0.812,2.125c0.002,0.004,0.003,0.004,0.004,0.006    c-0.321,0.572-0.556,1.053-0.705,1.393c-0.039,0-0.075,0.006-0.114,0.006c-0.842-1.416-1.949-2.828-3.317-4.193    c-0.919-0.92-1.798-1.668-2.607-2.289c-0.003-0.016,0.012-0.029,0.008-0.047C43.112,33.114,43.064,30.649,43.137,29.301z     M44.402,40.79c-1.896-1.896-3.057-3.658-3.72-4.859c1.199,0.656,2.962,1.82,4.9,3.76c1.094,1.092,1.968,2.209,2.702,3.33    c-0.388,0.039-0.764,0.092-1.127,0.158c-0.018-0.016-0.015-0.043-0.034-0.057C46.202,42.458,45.287,41.672,44.402,40.79z     M48.644,44.334l-2.39,2.393l-1.382-1.385C45.962,44.799,47.208,44.469,48.644,44.334z M43.686,46.067l1.613,1.615l-3.143,3.143    l-1.238-1.236C41.646,48.053,42.562,46.901,43.686,46.067z M40.358,50.934l0.844,0.844l-1.528,1.531    C39.875,52.454,40.099,51.653,40.358,50.934z M39.214,55.676L39.214,55.676l2.942-2.943l3.143,3.146l-3.146,3.145l-2.994-2.994    C39.177,55.911,39.193,55.792,39.214,55.676z M38.933,57.713l2.267,2.266l-2.647,2.646C38.634,60.829,38.763,59.206,38.933,57.713    z M38.423,68.856c0-1.193,0.012-2.332,0.034-3.422l2.743,2.742l-2.659,2.66C38.484,70.2,38.423,69.569,38.423,68.856z     M42.155,69.131l3.146,3.145l-3.146,3.146l-3.146-3.146L42.155,69.131z M40.743,76.833c-0.568-0.654-1.031-1.412-1.381-2.293    l1.838,1.838L40.743,76.833z M41.716,77.768l0.439-0.438l1.599,1.602C42.989,78.618,42.305,78.235,41.716,77.768z M43.109,76.377    l3.146-3.146l3.146,3.143l-3.146,3.148L43.109,76.377z M50.354,80.018c-0.917,0-1.751-0.055-2.554-0.135l2.556-2.555l2.555,2.555    C52.105,79.963,51.272,80.018,50.354,80.018z M54.454,79.52l-3.145-3.146l3.143-3.143l3.146,3.146L54.454,79.52z M56.935,78.948    l1.618-1.617l0.451,0.451C58.406,78.249,57.712,78.633,56.935,78.948z M59.984,76.854l-0.478-0.477l1.91-1.91    C61.061,75.385,60.579,76.176,59.984,76.854z M58.553,75.422l-3.146-3.146l3.145-3.143l3.146,3.146L58.553,75.422z M62.328,68.856    c0,0.729-0.062,1.375-0.121,2.023l-2.701-2.699l2.785-2.787C62.316,66.495,62.328,67.647,62.328,68.856z M62.199,62.67    l-2.692-2.691l2.305-2.305C61.985,59.188,62.117,60.84,62.199,62.67z M61.535,55.676c0.017,0.102,0.032,0.211,0.049,0.316    l-3.031,3.031l-3.146-3.145l3.146-3.146l2.913,2.914C61.484,55.665,61.514,55.661,61.535,55.676z M61.084,53.356l-1.577-1.578    l0.869-0.867C60.644,51.647,60.876,52.473,61.084,53.356z M58.553,50.825l-3.146-3.143l1.624-1.625    c1.129,0.83,2.05,1.975,2.783,3.506L58.553,50.825z"/></g></g></svg></g></g></svg>