<svg xmlns="http://www.w3.org/2000/svg" xmlns:xlink="http://www.w3.org/1999/xlink" width="1200" height="1200" viewBox="0 0 1200 1200"><g><g transform="translate(600 600) scale(0.69 0.69) rotate(0) translate(-600 -600)" style="fill:#a0062d"><svg fill="#a0062d" xmlns:x="http://ns.adobe.com/Extensibility/1.0/" xmlns:i="http://ns.adobe.com/AdobeIllustrator/10.0/" xmlns:graph="http://ns.adobe.com/Graphs/1.0/" xmlns="http://www.w3.org/2000/svg" xmlns:xlink="http://www.w3.org/1999/xlink" version="1.1" x="0px" y="0px" viewBox="0 0 100 100" enable-background="new 0 0 100 100" xml:space="preserve"><g><g i:extraneous="self"><path d="M44.405,63.272c-0.105,0.264-0.359,0.422-0.625,0.422c-0.084,0-0.172-0.016-0.254-0.049    c-1.5-0.607-2.326-1.762-2.328-3.252c0-0.904,0.4-1.816,0.775-2.217c0.262-0.275,0.686-0.285,0.955-0.033    c0.271,0.256,0.283,0.684,0.031,0.955c-0.119,0.125-0.412,0.693-0.412,1.295c0.004,0.928,0.502,1.6,1.484,2.002    C44.378,62.534,44.544,62.926,44.405,63.272z M55.593,60.702c-0.057-0.008-1.375-0.193-1.375-1.301    c0-0.371-0.303-0.674-0.674-0.674c-0.373,0-0.676,0.303-0.676,0.674c0,1.951,1.912,2.576,2.582,2.643    c0.023,0.002,0.045,0.002,0.066,0.002c0.34,0,0.625-0.256,0.664-0.598C56.222,61.081,55.958,60.749,55.593,60.702z M60.106,59.401    c0,3.205-3.041,4.592-4.59,4.592c-1.551,0-4.592-1.387-4.592-4.592c0-1.74,1.061-3.678,2.58-3.678c0.561,0,0.928,0.135,1.229,0.27    c-0.439-4.113-2.52-6.969-3.992-8.49c-0.117,1.139-0.75,2.678-2.613,4.566c-2.221,2.25-2.693,3.699-2.766,4.43    c0.09-0.031,0.162-0.029,0.264-0.074c0.41-0.188,0.926-0.422,1.631-0.422c1.607,0,3.033,2.455,3.033,4.391    c0,3.85-3.652,5.516-5.516,5.516c-1.865,0-5.52-1.666-5.52-5.516c0-2.072,1.295-4.391,3.029-4.391c0.828,0,1.326,0.238,1.73,0.436    c0.09-1.076,0.709-2.842,3.152-5.318c2.588-2.621,2.355-4.182,2.109-4.77c-0.191,0.053-0.35,0.127-0.607,0.127    c-1.133,0-2.355-0.648-3.635-1.928c-2.865-2.867-2.965-5.854-2.969-5.979c-0.006-0.184,0.068-0.363,0.201-0.494    c0.131-0.131,0.338-0.193,0.496-0.195c0.113,0.004,2.523,0.109,5.051,2.111c0.488-1.703,1.324-2.672,1.367-2.715    c0.125-0.133,0.303-0.209,0.486-0.209h0.004c0.184,0,0.361,0.076,0.49,0.213c0.07,0.074,1.744,1.896,1.744,5.137    c0,1.871-0.572,2.805-1.117,3.271c1.508,1.291,4.781,4.744,5.295,10.408c0.029-0.014,0.039-0.012,0.07-0.023    c0.344-0.156,0.773-0.352,1.371-0.352C58.915,55.723,60.106,57.747,60.106,59.401z M44.774,58.03    c-0.572,0-0.969-0.195-1.316-0.363c-0.344-0.168-0.639-0.314-1.174-0.314c-0.732,0-1.68,1.475-1.68,3.041    c0,3.141,3.102,4.166,4.17,4.166c1.066,0,4.166-1.025,4.166-4.166c0-1.572-1.158-3.041-1.684-3.041    c-0.414,0-0.719,0.141-1.072,0.301C45.794,57.831,45.354,58.03,44.774,58.03z M49.333,44.196    c-0.082-0.525-0.426-1.318-1.488-2.379c-1.617-1.619-3.318-2.229-4.297-2.455c0.225,0.961,0.828,2.619,2.441,4.232    c1.02,1.021,1.785,1.383,2.322,1.49l-1.84-1.844c-0.264-0.264-0.264-0.689,0-0.955c0.266-0.266,0.693-0.26,0.955,0L49.333,44.196z     M50.556,42.418c0-1.609-0.492-2.797-0.889-3.496c-0.266,0.473-0.572,1.182-0.734,2.094c0.855,0.891,1.312,1.668,1.539,2.338    C50.517,43.086,50.556,42.797,50.556,42.418z M58.757,59.401c0-1.221-0.887-2.328-1.232-2.328c-0.309,0-0.529,0.102-0.814,0.23    c-0.326,0.146-0.695,0.316-1.193,0.316c-0.492,0-0.84-0.17-1.119-0.307c-0.273-0.135-0.488-0.24-0.893-0.24    c-0.525,0-1.23,1.152-1.23,2.328c0,2.643,2.738,3.24,3.242,3.24C56.019,62.641,58.757,62.043,58.757,59.401z"/></g></g></svg></g></g></svg>