<svg xmlns="http://www.w3.org/2000/svg" xmlns:xlink="http://www.w3.org/1999/xlink" width="1200" height="1200" viewBox="0 0 1200 1200"><g><g transform="translate(600 600) scale(0.69 0.69) rotate(0) translate(-600 -600)" style="fill:#CC0096"><svg fill="#CC0096" xmlns="http://www.w3.org/2000/svg" xmlns:xlink="http://www.w3.org/1999/xlink" version="1.1" x="0px" y="0px" viewBox="0 0 90 90" enable-background="new 0 0 90 90" xml:space="preserve"><g><path d="M44.664,60.546h-5.51c-0.161,0-0.292,0.131-0.292,0.293l1.576,2.254c0,0.078,0.063,0.141,0.141,0.141h2.66   c0.077,0,0.14-0.062,0.14-0.141l1.576-2.254C44.955,60.677,44.824,60.546,44.664,60.546z"/><path d="M54.138,49.98c-0.5-1.163-0.686-1.745-0.999-1.745c-0.312,0-0.499,0.582-0.998,1.745c-0.592,1.404-1.3,1.904-1.832,2.495   l-2.91-1.384c1.503-7.276,1.654-14.147,1.107-20.128h0.423c0.108,0,0.195-0.077,0.195-0.172v-0.416   c0-0.095-0.087-0.172-0.195-0.172h-0.495c-0.84-8.206-2.97-14.65-4.625-18.022c-0.95-1.9-1.306-2.85-1.9-2.85   c-0.593,0-0.949,0.95-1.898,2.85c-1.656,3.372-3.786,9.816-4.625,18.022h-0.496c-0.108,0-0.195,0.077-0.195,0.172v0.416   c0,0.095,0.087,0.172,0.195,0.172h0.422c-0.544,5.967-0.396,12.822,1.098,20.081l-3.01,1.431c-0.531-0.591-1.239-1.091-1.831-2.495   c-0.5-1.163-0.687-1.745-0.999-1.745c-0.312,0-0.499,0.582-0.999,1.745c-1.686,3.997-4.309,0.67-1.124,12.952   c0.125,0.726,0.312,1.308,0.188,1.815h1.935h1.935c-0.125-0.508,0.062-1.09,0.187-1.815c0.252-0.972,0.467-1.846,0.65-2.633   l4.789-2.326c0.153,0.679,0.253,1.275,0.098,1.819h3.679h3.679c-0.153-0.539-0.057-1.128,0.095-1.802l4.663,2.218   c0.187,0.811,0.409,1.715,0.671,2.724c0.125,0.726,0.312,1.308,0.188,1.815h1.935h1.936c-0.124-0.508,0.063-1.09,0.188-1.815   C58.447,50.65,55.823,53.978,54.138,49.98z"/><path d="M54.942,65.255h-3.536c-0.104,0-0.188,0.073-0.188,0.164v0.398c0,0.091,0.083,0.165,0.188,0.165h3.536   c0.104,0,0.189-0.074,0.189-0.165v-0.398C55.132,65.328,55.047,65.255,54.942,65.255z"/><path d="M54.942,66.391h-3.536c-0.104,0-0.188,0.098-0.188,0.219l1.012,1.685c0,0.058,0.041,0.104,0.091,0.104h1.707   c0.051,0,0.091-0.047,0.091-0.104l1.013-1.685C55.132,66.488,55.047,66.391,54.942,66.391z"/><path d="M32.303,65.255h-3.537c-0.104,0-0.188,0.073-0.188,0.164v0.398c0,0.091,0.084,0.165,0.188,0.165h3.537   c0.104,0,0.188-0.074,0.188-0.165v-0.398C32.491,65.328,32.407,65.255,32.303,65.255z"/><path d="M32.303,66.391h-3.537c-0.104,0-0.188,0.098-0.188,0.219l1.012,1.685c0,0.058,0.041,0.104,0.09,0.104h1.708   c0.05,0,0.091-0.047,0.091-0.104l1.012-1.685C32.491,66.488,32.407,66.391,32.303,66.391z"/><path d="M41.995,67.327c-0.701,0-1.322-1.07-1.706-2.718c-2.083,7.496-0.227,14.171,0.976,16.624   c0.365,0.729,0.501,1.095,0.73,1.095s0.365-0.365,0.73-1.095c1.203-2.453,3.06-9.128,0.977-16.624   C43.317,66.257,42.696,67.327,41.995,67.327z"/></g></svg></g></g></svg>