<svg xmlns="http://www.w3.org/2000/svg" xmlns:xlink="http://www.w3.org/1999/xlink" width="1200" height="1200" viewBox="0 0 1200 1200"><g><g transform="translate(600 600) scale(0.69 0.69) rotate(0) translate(-600 -600)" style="fill:#458f6b"><svg fill="#458f6b" xmlns:x="http://ns.adobe.com/Extensibility/1.0/" xmlns:i="http://ns.adobe.com/AdobeIllustrator/10.0/" xmlns:graph="http://ns.adobe.com/Graphs/1.0/" xmlns="http://www.w3.org/2000/svg" xmlns:xlink="http://www.w3.org/1999/xlink" version="1.1" x="0px" y="0px" viewBox="0 0 100 100" enable-background="new 0 0 100 100" xml:space="preserve"><g><g i:extraneous="self"><path d="M76.011,46.247c-5.616-2.438-15.947-3.954-27.074-3.961l-7.471-1.838c-1.587-3.565-8.074-17.533-12.163-17.533h-3.818    c-0.374,0-0.675,0.302-0.675,0.675v5.695c0,0.357,0.278,0.653,0.634,0.674c0.134,0.008,1.307,0.115,1.321,1.517l1.994,9.624    c0.023,0.114,0.075,0.221,0.153,0.308l1.333,1.525l-3.22,3.284l-9.6,1.945c-0.314,0.064-0.541,0.34-0.541,0.662v3.852    c0,0.322,0.227,0.599,0.543,0.662l9.603,1.919l3.343,3.33l-1.443,1.519c-0.087,0.089-0.146,0.203-0.171,0.327L26.75,70.18    c0,0.746-0.401,1.068-0.766,1.226c-0.271,0.037-0.484,0.056-0.521,0.058c-0.372,0.013-0.664,0.324-0.652,0.696    c0,0.014,0.015,0.021,0.016,0.035c-0.001,0.016-0.017,0.026-0.017,0.042v5.695c0,0.372,0.302,0.675,0.675,0.675h3.818    c4.089,0,10.576-13.959,12.163-17.519l7.477-1.84c11.09-0.008,21.389-1.516,27.013-3.942c4.409-0.013,8.269-2.123,8.269-4.533    C84.224,48.461,80.245,46.28,76.011,46.247z M26.16,24.265h3.143c0.315,0,0.682,0.17,1.086,0.472H26.16V24.265z M31.646,43.431    c0.247-0.252,0.259-0.651,0.025-0.916l-1.628-1.863L28.1,31.339c0-0.274-0.067-0.488-0.121-0.713    c1.333,0.65,2.695,1.933,2.695,4.523c0,0.373,0.302,0.675,0.675,0.675s0.675-0.302,0.675-0.675c0-4.58-3.529-6.175-5.864-6.473    v-2.589h5.453c0.041,0,0.066-0.037,0.104-0.043c2.716,3.18,6.334,10.006,8.649,15.253c0.084,0.191,0.253,0.332,0.456,0.382    l7.868,1.936c0.029,0.008,0.054-0.016,0.083-0.012c0.029,0.002,0.047,0.032,0.078,0.032c8.945,0,17.354,0.976,23.123,2.621H60.62    c-0.019-0.005-0.026-0.032-0.047-0.036l-11.722-1.95l-11.777,0.012l-7.716,1.484L31.646,43.431z M59.196,50.073v-2.714    l0.812,0.136l1.271,2.579H59.196z M61.277,51.423l-1.321,2.602l-0.76,0.129v-2.731H61.277z M49.748,50.073v-4.294l8.099,1.354    v2.94H49.748z M57.847,51.423v2.961l-8.099,1.379v-4.34H57.847z M19.051,52.285l-0.817-0.164v-2.746l0.817-0.166V52.285z     M20.401,52.486v-1.063H44.87c0.374,0,0.675-0.302,0.675-0.675s-0.302-0.675-0.675-0.675H20.401v-1.041l18.735-1.429    c0.372-0.029,0.65-0.354,0.623-0.726c-0.029-0.374-0.402-0.673-0.726-0.622L30.589,46.9l6.613-1.281l11.196-0.009v10.306    l-11.064,0.013l-6.423-1.276l8.122,0.628c0.018,0.002,0.035,0.002,0.053,0.002c0.348,0,0.645-0.269,0.671-0.622    c0.029-0.372-0.25-0.696-0.621-0.725L20.401,52.486z M29.303,77.257H26.16v-0.564h4.337    C30.051,77.046,29.644,77.257,29.303,77.257z M48.879,57.898c-0.008,0-0.019,0-0.028,0c-0.03,0-0.047,0.026-0.076,0.032    c-0.029,0.002-0.054-0.021-0.084-0.013l-7.868,1.938c-0.204,0.05-0.372,0.192-0.456,0.385c-2.298,5.205-5.882,11.965-8.592,15.172    c-0.058-0.019-0.099-0.069-0.162-0.069H26.16v-2.547c0.049-0.013,0.1-0.045,0.149-0.063c2.333-0.351,5.715-1.982,5.715-6.457    c0-0.372-0.302-0.675-0.675-0.675s-0.675,0.303-0.675,0.675c0,2.571-1.345,3.854-2.67,4.511c0.026-0.158,0.083-0.29,0.082-0.469    l1.955-9.421l1.765-1.859c0.253-0.264,0.247-0.683-0.013-0.941l-2.378-2.368l7.788,1.537l11.761-0.011l0.059-0.01    c0.02,0.002,0.03,0.021,0.05,0.021c0.046,0,0.075-0.04,0.119-0.05l11.266-1.906l11.482-0.019    C66.179,56.928,57.796,57.898,48.879,57.898z M79.23,53.486c-0.96,0.278-2.054,0.465-3.267,0.471    c-0.024-0.002-0.04-0.024-0.066-0.024l-14.394,0.024l1.469-2.893c0.024-0.045-0.01-0.093,0-0.141    c0.021-0.062,0.074-0.106,0.074-0.175c0-0.066-0.053-0.108-0.068-0.167c-0.013-0.04,0.019-0.083,0-0.12l-1.408-2.855h14.339    c0.013,0,0.021-0.01,0.034-0.012c1.155,0.003,2.228,0.191,3.188,0.471H66.189c-0.372,0-0.675,0.302-0.675,0.675v3.881    c0,0.373,0.303,0.675,0.675,0.675H79.23V53.486z M79.23,51.945H66.864v-2.531H79.23V51.945z M80.58,52.99V52.62v-3.881v-0.137    c1.4,0.656,2.294,1.505,2.294,2.172C82.874,51.467,82.001,52.333,80.58,52.99z"/></g></g></svg></g></g></svg>