<svg xmlns="http://www.w3.org/2000/svg" xmlns:xlink="http://www.w3.org/1999/xlink" width="1200" height="1200" viewBox="0 0 1200 1200"><g><g transform="translate(600 600) scale(0.69 0.69) rotate(180) translate(-600 -600)" style="fill:#66458f"><svg fill="#66458f" xmlns:x="http://ns.adobe.com/Extensibility/1.0/" xmlns:i="http://ns.adobe.com/AdobeIllustrator/10.0/" xmlns:graph="http://ns.adobe.com/Graphs/1.0/" xmlns="http://www.w3.org/2000/svg" xmlns:xlink="http://www.w3.org/1999/xlink" version="1.1" x="0px" y="0px" viewBox="0 0 100 100" enable-background="new 0 0 100 100" xml:space="preserve"><g><g i:extraneous="self"><path d="M67.157,64.943c0.852-0.474,1.914-1.062,3.338-1.062c0.372,0,0.675,0.302,0.675,0.676c0,0.373-0.303,0.675-0.675,0.675    c-1.075,0-1.93,0.473-2.684,0.891c-1.01,0.562-2.057,1.145-4.048,1.145c-1.571,0-2.561-0.354-3.322-0.698    c-0.337-0.156-0.49-0.557-0.335-0.895c0.153-0.339,0.554-0.489,0.895-0.335c0.661,0.3,1.452,0.578,2.763,0.578    C65.404,65.918,66.216,65.466,67.157,64.943z M71.17,37.421c0-0.371-0.303-0.675-0.675-0.675c-1.065,0-1.888-0.456-2.697-0.904    c-1.015-0.559-2.064-1.137-4.034-1.137c-1.59,0-2.613,0.372-3.401,0.738c-0.34,0.158-0.49,0.562-0.329,0.895    c0.155,0.34,0.556,0.487,0.894,0.329c0.69-0.316,1.511-0.611,2.837-0.611c1.622,0,2.439,0.448,3.394,0.976    c0.857,0.475,1.922,1.065,3.338,1.065C70.867,38.097,71.17,37.793,71.17,37.421z M51.991,61.81    c-0.377-0.369-1.374-0.35-2.339-0.331l-0.707,0.01c-25.465,0-39.461-7.846-39.461-10.447c0-2.627,13.996-10.556,39.461-10.556    l0.709,0.008c0.966,0.021,1.962,0.039,2.337-0.33c0.023-0.021,0.068-0.087,0.107-0.16c-3.433-0.279-5.373-2.226-5.46-2.315    c-0.127-0.132-0.19-0.313-0.188-0.487c0.005-0.183,0.084-0.351,0.216-0.475c0.087-0.082,2.187-1.978,6.23-1.978h3.863    c0.644,0,1.224-0.293,1.959-0.667c1.16-0.586,2.605-1.316,5.044-1.316c2.481,0,3.929,0.799,4.986,1.385    c0.686,0.377,1.179,0.651,1.745,0.651c2.297,0,3.302,0.725,4.108,1.308c0.512,0.372,0.856,0.614,1.463,0.619    c0.006,0,0.011-0.002,0.017-0.002c0.005,0,0.008,0.005,0.013,0.005c3.778,0,15.527-0.016,15.527-0.016v1.35    c0,0-11.772,0.016-15.54,0.016c-0.006,0-0.011-0.002-0.017-0.002c-0.714,0.008-1.049,0.329-1.505,0.78    c-0.507,0.496-1.132,1.115-2.302,1.115c-0.349,0-0.902,0.124-0.986,0.324c-0.008,0.019-0.229,0.599,1.523,2.353    c4.172,4.168,5.999,6.217,5.999,8.328c0,0.002-0.003,0.005-0.003,0.008c0,0.002,0.003,0.005,0.003,0.008    c0,2.107-1.827,4.158-5.999,8.334c-1.742,1.744-1.537,2.323-1.523,2.35c0.081,0.199,0.635,0.323,0.98,0.322    c1.176,0,1.804,0.619,2.308,1.119c0.453,0.446,0.791,0.766,1.492,0.776c0.011,0,0.019-0.003,0.029-0.003    c3.768,0,15.54,0.016,15.54,0.016v1.351c0,0-11.723-0.016-15.514-0.016c-0.011,0-0.017,0.01-0.026,0.01    c-0.011,0-0.019-0.004-0.032-0.004c-0.596,0.01-0.941,0.248-1.447,0.614c-0.807,0.583-1.812,1.31-4.108,1.31    c-0.566,0-1.06,0.274-1.745,0.652c-1.058,0.586-2.505,1.389-4.986,1.389c-2.438,0-3.884-0.732-5.044-1.321    c-0.735-0.373-1.315-0.667-1.959-0.667h-3.863c-4.044,0-6.144-1.897-6.23-1.978c-0.132-0.123-0.211-0.294-0.216-0.475    c0-0.226,0.061-0.358,0.188-0.488c0.087-0.089,2.027-2.032,5.463-2.311C52.06,61.896,52.015,61.832,51.991,61.81z M52.223,65.854    v-2.558c-1.898,0.147-3.254,0.893-3.983,1.41C48.969,65.139,50.306,65.737,52.223,65.854z M72.935,63.523v1.79    c0.327-0.168,0.614-0.353,0.878-0.544c0.103-0.075,0.211-0.147,0.319-0.222c-0.19-0.155-0.364-0.316-0.52-0.47    C73.356,63.825,73.15,63.646,72.935,63.523z M74.712,53.631l-3.156,4.546h0.482c1.83-1.836,3.254-3.314,4.185-4.546H74.712z     M71.558,43.913l3.154,4.539h1.592c-0.906-1.227-2.325-2.704-4.155-4.539H71.558z M72.935,36.659v1.79    c0.216-0.121,0.422-0.3,0.678-0.554c0.155-0.152,0.329-0.313,0.521-0.469c-0.107-0.074-0.216-0.147-0.321-0.225    C73.549,37.013,73.262,36.828,72.935,36.659z M59.355,35.272v5.819l3.499,5.355h3.684c0.371,0,0.675,0.303,0.675,0.676v0.281    c1.824,0.306,3.729,1.778,3.729,3.568c0,1.786-1.904,3.258-3.729,3.563v0.286c0,0.373-0.304,0.675-0.675,0.675h-3.607    l-3.575,5.362v5.842c1.078,0.548,2.307,1.162,4.408,1.162c2.133,0,3.302-0.647,4.332-1.219c0.765-0.422,1.484-0.821,2.399-0.821    c0.422,0,0.771-0.035,1.089-0.084v-2.472c-0.546-0.103-1.255-0.354-1.556-1.065c-0.298-0.728-0.053-1.594,0.783-2.676h-0.546    c-0.25,0-0.482-0.14-0.599-0.362c-0.11-0.221-0.103-0.492,0.045-0.697l4.093-5.896c0.126-0.182,0.332-0.29,0.554-0.29h2.731    c0.229-0.467,0.355-0.895,0.355-1.286c0-0.003,0.003-0.006,0.003-0.008c0-0.003-0.003-0.006-0.003-0.008    c0-0.36-0.118-0.755-0.311-1.177h-2.776c-0.222,0-0.428-0.107-0.554-0.29l-4.093-5.889c-0.147-0.211-0.155-0.478-0.045-0.699    c0.116-0.221,0.349-0.361,0.599-0.361h0.644c-0.901-1.128-1.191-2.032-0.881-2.789c0.301-0.709,1.008-0.963,1.556-1.065v-2.476    c-0.318-0.048-0.667-0.082-1.089-0.082c-0.915,0-1.635-0.398-2.396-0.82c-1.033-0.569-2.202-1.215-4.335-1.215    C61.662,34.115,60.437,34.727,59.355,35.272z M53.217,56.978c1.039,0.609,2.23,0.982,3.521,0.982h2.929l2.342-3.512    c0.124-0.188,0.335-0.301,0.562-0.301h3.293v-6.35h-3.375c-0.227,0-0.44-0.114-0.563-0.306l-2.337-3.579h-2.85    c-1.29,0-2.484,0.374-3.523,0.983l1.361,1.5c0.113,0.127,0.174,0.29,0.174,0.454c0,0.118-0.032,0.239-0.095,0.347l-0.243,0.404    c-1.154,2.119-1.086,4.965,0.232,7.062c0.163,0.257,0.137,0.591-0.068,0.812L53.217,56.978z M53.24,54.938    c-0.174-0.319-0.264-0.675-0.393-1.016l-1.827,1.067c0.316,0.442,0.688,0.835,1.095,1.194L53.24,54.938z M52.441,52.599    c-0.216-1.096-0.216-2.223-0.002-3.32l-2.094-1.221c-0.398,0.881-0.633,1.852-0.633,2.878c0,1.031,0.234,2.003,0.636,2.885    L52.441,52.599z M53.238,46.932l-1.126-1.239c-0.406,0.359-0.78,0.752-1.095,1.194l1.827,1.065    C52.975,47.609,53.064,47.254,53.238,46.932z M67.213,53.157c1.176-0.278,2.378-1.202,2.378-2.185c0-0.983-1.202-1.91-2.378-2.189    V53.157z M52.223,38.682v-2.562c-1.914,0.115-3.251,0.714-3.981,1.144C48.978,37.782,50.338,38.531,52.223,38.682z M53.565,62.54    c0,0.008,0.008,0.014,0.008,0.021c0,0.013,0,0.023,0,0.034v3.28h3.188c0.448,0,0.852,0.099,1.244,0.231v-5.452    c0-0.134,0.04-0.264,0.113-0.375l0.646-0.97h-2.027c-4.617,0-8.375-3.757-8.375-8.375c0-4.615,3.758-8.373,8.375-8.373h1.967    l-0.588-0.901c-0.074-0.11-0.111-0.237-0.111-0.369v-5.427c-0.393,0.135-0.796,0.232-1.244,0.232h-3.188v3.285    c0,0.744-0.214,1.332-0.636,1.746c-0.78,0.765-2.009,0.74-3.31,0.714l-0.683-0.008c-24.146,0-37.615,7.416-38.113,9.246    c0.498,1.729,13.967,9.057,38.113,9.057l0.683-0.009c1.301-0.025,2.526-0.049,3.307,0.717    C53.349,61.248,53.552,61.823,53.565,62.54z M29.573,45.593c0.322-0.063,0.543-0.346,0.543-0.662c0-0.042-0.005-0.087-0.013-0.132    c-0.074-0.366-0.427-0.604-0.794-0.53c-6.6,1.316-11.045,3.028-13.613,4.231c-0.337,0.158-0.478,0.563-0.324,0.897    c0.158,0.337,0.562,0.483,0.899,0.325C18.317,48.764,22.769,46.95,29.573,45.593z M33.581,44.886    c4.279-0.644,8.812-1.01,13.469-1.089c0.369-0.005,0.664-0.309,0.664-0.675c0-0.003,0-0.008,0-0.011    c-0.005-0.374-0.313-0.67-0.686-0.664c-4.717,0.079-9.31,0.45-13.647,1.104c-0.366,0.056-0.628,0.382-0.566,0.768    C32.869,44.688,33.212,44.941,33.581,44.886z M47.717,58.862c0-0.005,0-0.007,0-0.011c0-0.368-0.295-0.669-0.664-0.675    c-3.964-0.065-7.815-0.333-11.452-0.797c-0.369-0.047-0.706,0.215-0.754,0.584c-0.034,0.373,0.214,0.709,0.586,0.756    c3.684,0.469,7.586,0.74,11.599,0.807C47.403,59.533,47.712,59.235,47.717,58.862z M32.047,57.544    c0.008-0.04,0.011-0.079,0.011-0.118c0-0.321-0.232-0.606-0.56-0.663c-7.895-1.371-12.97-3.387-15.29-4.466    c-0.338-0.157-0.738-0.011-0.896,0.326c-0.155,0.338-0.011,0.74,0.327,0.896c2.384,1.109,7.58,3.176,15.628,4.572    C31.636,58.156,31.983,57.91,32.047,57.544z"/></g></g></svg></g></g></svg>