<svg xmlns="http://www.w3.org/2000/svg" xmlns:xlink="http://www.w3.org/1999/xlink" width="1200" height="1200" viewBox="0 0 1200 1200"><g><g transform="translate(600 600) scale(0.69 0.69) rotate(-90) translate(-600 -600)" style="fill:#16008f"><svg fill="#16008f" xmlns:x="http://ns.adobe.com/Extensibility/1.0/" xmlns:i="http://ns.adobe.com/AdobeIllustrator/10.0/" xmlns:graph="http://ns.adobe.com/Graphs/1.0/" xmlns="http://www.w3.org/2000/svg" xmlns:xlink="http://www.w3.org/1999/xlink" version="1.1" x="0px" y="0px" viewBox="0 0 100 100" enable-background="new 0 0 100 100" xml:space="preserve"><g><g i:extraneous="self"><path d="M28.351,52.182c-0.008,0.01-0.026,0.008-0.034,0.02c0,0.001,0,0.004,0,0.004c-0.09,0.116-0.143,0.258-0.143,0.411v6.043    c0,0.105,0.024,0.208,0.071,0.3l1.861,3.729c0.113,0.229,0.348,0.375,0.604,0.375h3.865c0.248,0,0.475-0.135,0.593-0.354    l1.946-3.583l0.058-0.039l8.52,23.095c0.098,0.264,0.351,0.44,0.633,0.44h3.807c0.372,0,0.675-0.303,0.675-0.675v-1.767    c0.002-0.019,0.021-0.032,0.021-0.05v-9.173h1.308h0.021h1.282v9.173c0,0.045,0.04,0.071,0.047,0.113v1.704    c0,0.372,0.303,0.675,0.675,0.675h3.808c0.021,0,0.034-0.016,0.053-0.016c0.016,0,0.026,0.016,0.042,0.016    c0.372,0,0.675-0.303,0.675-0.675v-0.137l10.689-28.96c0.016-0.046-0.01-0.088-0.005-0.135c0.353-1.057,0.641-2.145,0.804-3.28    c1.121-0.298,1.964-1.279,1.964-2.52c0-1.201-0.828-2.172-1.933-2.481c-1.084-8.159-7.502-14.476-15.47-15.643v-1.219    c0-0.374-0.303-0.675-0.675-0.675h-3.96c-0.372,0-0.675,0.302-0.675,0.675v1.219c-8.01,1.171-14.434,7.521-15.457,15.625    c-1.144,0.28-2.014,1.272-2.014,2.536c0,1.232,0.875,2.221,2.025,2.496c0.045,0.331,0.105,0.658,0.171,0.983l-5.535,1.535    C28.541,52.003,28.438,52.086,28.351,52.182z M70.293,45.903c0.324,0.233,0.548,0.601,0.548,1.051    c0,0.424-0.224,0.783-0.548,1.012V45.903z M33.901,47.961c-0.322-0.232-0.543-0.599-0.543-1.044c0-0.426,0.222-0.785,0.543-1.015    V47.961z M32.05,61.714h-0.923l-0.298-0.596h1.221V61.714z M32.05,59.768h-1.893l-0.216-0.433h2.109V59.768z M34.175,61.714H33.4    v-0.596h1.1L34.175,61.714z M33.231,57.985V56.89l1.406,1.096H33.231z M35.227,59.776c-0.008,0-0.01-0.008-0.019-0.008H33.4    v-0.433h2.067L35.227,59.776z M36.627,57.825l-2.61-2.036l12.522-5.65c0.129,0.22,0.288,0.424,0.443,0.629L36.627,57.825z     M56.656,54.58c-0.002-0.034,0.029-0.062,0.021-0.095l-0.783-3.047h0.578c0.192,0,0.375-0.082,0.503-0.226    c0.712-0.797,1.189-1.752,1.448-2.767l3.288,1.089c0.068,0.022,0.142,0.035,0.213,0.035h2.958    c-0.878,4.154-3.752,7.689-7.697,9.35h-0.498v-4.266C56.688,54.624,56.661,54.608,56.656,54.58z M52.1,42.287    c-2.529,0-4.588,2.058-4.588,4.588c0,1.181,0.453,2.277,1.252,3.127l-0.021,0.087h-0.615c-0.744-0.924-1.149-2.055-1.149-3.214    c0-2.844,2.312-5.158,5.157-5.158c2.845,0,5.158,2.314,5.158,5.155c-0.005,1.169-0.406,2.301-1.137,3.217h-0.609l-0.042-0.167    c0.754-0.842,1.182-1.91,1.182-3.046C56.688,44.345,54.628,42.287,52.1,42.287z M55.053,48.167l-0.359-1.402    c-0.076-0.299-0.345-0.507-0.654-0.507h-3.808c-0.308,0-0.58,0.209-0.654,0.51l-0.377,1.498c-0.208-0.431-0.34-0.895-0.34-1.391    c0-1.785,1.453-3.238,3.238-3.238s3.238,1.453,3.238,3.238C55.337,47.328,55.232,47.762,55.053,48.167z M55.153,53.978h-0.838    l-1.706-1.671c-0.261-0.252-0.67-0.26-0.934-0.009l-1.788,1.681h-0.733l1.603-6.37h2.758L55.153,53.978z M48.962,60.271h0.517    v2.534h-0.517V60.271z M48.962,58.921v-3.594h1.191c0.172,0,0.338-0.066,0.462-0.183l1.511-1.42l1.442,1.411    c0.126,0.124,0.295,0.192,0.472,0.192h1.297v3.591h-0.548v-0.43c0-0.372-0.303-0.675-0.675-0.675h-3.96    c-0.372,0-0.675,0.303-0.675,0.675v0.432H48.962z M54.789,60.269h0.548v2.537h-0.548V60.269z M55.348,70.958v0.965l-0.559,0.519    v-1.484H55.348z M47.648,54.563c-0.005,0.034-0.037,0.055-0.037,0.09v4.269h-0.514c-1.791-0.751-3.394-1.929-4.696-3.397    l5.994-4.086h0.008l-0.77,3.049C47.625,54.514,47.651,54.537,47.648,54.563z M47.612,60.271v2.539h-1.239    c-2.816-1.018-5.29-2.779-7.214-5.078l2.118-1.442c1.487,1.717,3.349,3.083,5.432,3.932c0.082,0.034,0.168,0.05,0.255,0.05H47.612    z M62.032,48.219l-2.022-0.67h1.824c0.372,0,0.675-0.302,0.675-0.675c0-0.374-0.303-0.675-0.675-0.675h-1.516l1.647-0.554h3.106    v2.574H62.032z M48.187,35.824h7.826c0.372,0,0.675-0.302,0.675-0.675v-0.496c4.14,1.553,7.301,5.17,8.203,9.643h-2.576    c-1.163-4.609-5.389-7.937-10.178-7.937c-4.791,0-9.015,3.326-10.178,7.937H39.38c0.894-4.438,4.034-8.04,8.132-9.612v0.465    C47.512,35.522,47.815,35.824,48.187,35.824z M48.861,34.474v-0.178c1.058-0.279,2.144-0.476,3.275-0.476    c1.105,0,2.167,0.188,3.201,0.453v0.201H48.861z M52.136,32.47c-6.924,0-12.915,5.062-14.141,11.826H37.4    c1.236-7.111,7.449-12.419,14.736-12.419c7.293,0,13.495,5.305,14.729,12.419h-0.596C65.041,37.524,59.084,32.47,52.136,32.47z     M39.127,45.646h3.106l1.648,0.554h-1.348c-0.372,0-0.675,0.302-0.675,0.675c0,0.373,0.303,0.675,0.675,0.675h1.651l-2.017,0.67    h-3.04V45.646z M43.282,44.574c1.031-3.991,4.696-6.865,8.854-6.865c4.148,0,7.81,2.866,8.846,6.842l-2.523,0.848    c-0.672-2.877-3.243-5.032-6.323-5.032c-3.087,0-5.666,2.166-6.331,5.054L43.282,44.574z M43.741,72.996l-2.167-5.877h2.167    V72.996z M49.458,81.273h-2.663l-1.883-5.107c0.103-0.119,0.179-0.266,0.179-0.435v-9.286c0-0.372-0.303-0.675-0.675-0.675h-3.341    l-2.441-6.618c2.03,2.233,4.546,3.963,7.398,4.97c0.071,0.026,0.148,0.04,0.224,0.04c0,0,0,0,0.003,0h1.353v6.033    c0,0.008,0.008,0.011,0.008,0.019c-0.002,0.026-0.029,0.045-0.029,0.071v1.936c0,0.187,0.076,0.364,0.213,0.493l1.408,1.321    l-1.453,1.64c-0.108,0.124-0.168,0.282-0.168,0.448v3.884c0,0.372,0.303,0.675,0.675,0.675h1.192V81.273z M49.479,79.33H48.94    v-2.953l0.538-0.606V79.33z M49.479,72.43l-0.538-0.504v-0.968h0.538V72.43z M51.482,69.519h-2.521v-5.358l1.187-0.002    c0.002,0,0.002,0.002,0.005,0.002h1.329V69.519z M50.829,62.806v-2.534l2.61-0.002v2.537H50.829z M52.833,69.519v-5.358h1.281    c0.003,0,0.005-0.002,0.008-0.002l1.215-0.003v5.363H52.833z M54.789,75.757l0.559,0.623v2.95h-0.559V75.757z M58.739,77.917    v-3.077h1.136L58.739,77.917z M62.509,67.699v-2.679h0.989L62.509,67.699z M63.996,63.67h-2.162c-0.372,0-0.675,0.303-0.675,0.675    V70.8c0,0.103,0.068,0.174,0.108,0.264l-0.894,2.426h-2.31c-0.372,0-0.675,0.303-0.675,0.675v7.108h-2.552V80.68h1.187    c0.372,0,0.675-0.303,0.675-0.675v-3.884c0-0.167-0.061-0.327-0.171-0.451l-1.466-1.635l1.421-1.321    c0.137-0.129,0.216-0.309,0.216-0.496v-1.936c0-0.021-0.021-0.037-0.023-0.058c0-0.01,0.013-0.019,0.013-0.032v-6.038h1.345    c0.076,0,0.153-0.013,0.227-0.04c2.916-1.034,5.418-2.774,7.407-4.97L63.996,63.67z M57.914,62.806h-1.226v-2.537h0.633    c0.087,0,0.174-0.016,0.256-0.05c4.509-1.843,7.778-5.898,8.683-10.649h2.579C67.867,55.655,63.738,60.696,57.914,62.806z     M68.93,48.219h-2.508v-2.574h2.519L68.93,48.219z M50.829,28.249h2.61v0.393c-0.433-0.03-0.865-0.061-1.303-0.061    c-0.44,0-0.875,0.03-1.308,0.061V28.249z M52.136,29.931c8.401,0,15.504,6.188,16.722,14.365h-0.612    c-1.25-7.874-8.079-13.769-16.11-13.769c-8.023,0-14.866,5.898-16.118,13.769H35.43C36.688,36.076,43.749,29.931,52.136,29.931z     M37.777,45.646v2.574h-2.5l-0.021-2.574H37.777z M37.318,49.569l-1.809,0.501c-0.032-0.167-0.058-0.334-0.084-0.501H37.318z     M42.454,49.544c0.003-0.001,0.003-0.004,0.005-0.004c0.011-0.002,0.021-0.002,0.029-0.005l3.356-1.114    c0.042,0.165,0.084,0.327,0.14,0.488l-13.173,5.943l-2.492-1.943L42.454,49.544z M29.524,53.999l2.357,1.837v2.149h-2.357V53.999z    "/></g></g></svg></g></g></svg>